<svg xmlns="http://www.w3.org/2000/svg"
 xmlns:xlink="http://www.w3.org/1999/xlink"
 width="40px" height="40px"  viewBox="0 0 40 40">
<path fill-rule="evenodd"  fill="#ffffff"
 d="M38.319702,16.233887 C38.075684,15.041016 37.71228,13.869141 37.23767,12.746094 C36.770874,11.644531 36.196777,10.583496 35.524902,9.591797 C34.864624,8.609375 34.100952,7.689453 33.263184,6.8515625 C32.421387,6.0097656 31.501343,5.2460938 30.519043,4.5859375 C29.528687,3.9135742 28.466309,3.3359375 27.364624,2.8691406 C26.247437,2.3979492 25.069824,2.0351562 23.878296,1.7929688 C22.655762,1.5410156 21.39795,1.4121094 20.14209,1.4121094 C18.884277,1.4121094 17.628418,1.5410156 16.403687,1.7929688 C15.214355,2.0351562 14.038452,2.3979492 12.919312,2.8691406 C11.817871,3.3359375 10.757202,3.9135742 9.76709,4.5859375 C8.784668,5.2460938 7.8587646,6.0097656 7.01709,6.8515625 C6.1829834,7.689453 5.4193115,8.609375 4.755371,9.591797 C4.0874023,10.583496 3.5092773,11.644531 3.0462646,12.746094 C2.5717773,13.869141 2.2044678,15.041016 1.9622803,16.233887 C1.7143555,17.455078 1.5853271,18.714844 1.5853271,19.96875 C1.5853271,21.226562 1.7143555,22.486328 1.9622803,23.703125 C2.2044678,24.896484 2.5717773,26.072266 3.0462646,27.191406 C3.5092773,28.292969 4.0874023,29.353516 4.755371,30.34961 C5.4193115,31.325684 6.1829834,32.251465 7.01709,33.089844 C7.8587646,33.93164 8.784668,34.691406 9.76709,35.351562 C10.757202,36.023438 11.817871,36.601562 12.919312,37.06836 C14.038452,37.539062 15.214355,37.901855 16.403687,38.14453 C17.628418,38.40039 18.884277,38.524902 20.14209,38.524902 C21.39795,38.524902 22.655762,38.40039 23.878296,38.14453 C25.069824,37.901855 26.247437,37.539062 27.364624,37.06836 C28.466309,36.601562 29.528687,36.023438 30.519043,35.351562 C31.501343,34.691406 32.421387,33.93164 33.263184,33.089844 C34.100952,32.251465 34.864624,31.325684 35.524902,30.34961 C36.196777,29.353516 36.770874,28.292969 37.23767,27.191406 C37.71228,26.072266 38.075684,24.896484 38.319702,23.703125 C38.571777,22.486328 38.694824,21.226562 38.694824,19.96875 C38.694824,18.714844 38.571777,17.455078 38.319702,16.233887 ZM35.983765,19.808594 C35.751465,19.761719 30.390137,18.607422 24.946777,19.291016 C24.83545,19.019531 24.720215,18.746094 24.60498,18.47461 C24.27295,17.699219 23.919434,16.93164 23.552124,16.175781 C29.808105,13.621094 32.347046,9.947266 32.38025,9.902344 C34.600952,12.601074 35.946655,16.052734 35.983765,19.808594 ZM30.608887,8.078125 C30.567871,8.140625 28.310059,11.574219 22.329468,13.814453 C19.622559,8.837891 16.645874,4.882324 16.407593,4.5703125 C17.608765,4.28125 18.85498,4.123047 20.14209,4.123047 C24.153809,4.123047 27.815918,5.6171875 30.608887,8.078125 ZM16.345093,4.5820312 C16.345093,4.5820312 16.345093,4.5859375 16.345093,4.5859375 C16.345093,4.5859375 16.323608,4.5893555 16.296265,4.59375 C16.296265,4.59375 16.32959,4.5893555 16.345093,4.5820312 ZM13.382324,5.6381836 C13.587402,5.919922 16.522827,9.894043 19.263184,14.767578 C11.655762,16.790527 5.052246,16.708984 4.632202,16.703125 C5.663574,11.796875 8.96228,7.726074 13.382324,5.6381836 ZM4.2944336,19.96875 C4.2944336,19.798828 4.302246,19.634277 4.3060303,19.46875 C4.5874023,19.472656 12.419312,19.65039 20.575684,17.210938 C21.030762,18.099121 21.468262,19.001465 21.86267,19.90625 C21.653687,19.96045 21.446655,20.026855 21.23584,20.091797 C12.684937,22.853516 8.350952,30.550781 8.350952,30.550781 C8.350952,30.550781 8.354858,30.558594 8.354858,30.558594 C5.833374,27.748047 4.2944336,24.039062 4.2944336,19.96875 ZM20.14209,35.81787 C16.308105,35.81787 12.786621,34.45117 10.046265,32.185547 C10.253296,32.35547 10.401733,32.46289 10.401733,32.46289 C10.401733,32.46289 13.438965,25.83789 22.837402,22.560547 C22.874512,22.548828 22.907593,22.534668 22.940796,22.53125 C25.173218,28.321777 26.093262,33.17578 26.325684,34.56201 C24.427246,35.367188 22.337402,35.81787 20.14209,35.81787 ZM28.995605,33.109375 C28.835327,32.15625 27.987793,27.50586 25.911621,21.792969 C31.026733,20.976074 35.458496,22.378906 35.788574,22.486328 C35.083496,26.902344 32.558105,30.71289 28.995605,33.109375 Z"/>
</svg>