<svg xmlns="http://www.w3.org/2000/svg"
 xmlns:xlink="http://www.w3.org/1999/xlink"
 width="19px" height="39px"  viewBox="0 0 19 39">
<path fill-rule="evenodd"  fill="#ffffff"
 d="M17.970093,13.063965 C17.970093,13.063965 12.2317505,13.063965 12.2317505,13.063965 C12.2317505,13.063965 12.2317505,9.3046875 12.2317505,9.3046875 C12.2317505,7.888672 13.168335,7.5625 13.829468,7.5625 C14.48761,7.5625 17.878296,7.5625 17.878296,7.5625 C17.878296,7.5625 17.878296,1.3457031 17.878296,1.3457031 C17.878296,1.3457031 12.300232,1.3256836 12.300232,1.3256836 C6.1087036,1.3256836 4.7024536,5.9570312 4.7024536,8.923828 C4.7024536,8.923828 4.7024536,13.063965 4.7024536,13.063965 C4.7024536,13.063965 1.1204834,13.063965 1.1204834,13.063965 C1.1204834,13.063965 1.1204834,19.46875 1.1204834,19.46875 C1.1204834,19.46875 4.7024536,19.46875 4.7024536,19.46875 C4.7024536,27.6875 4.7024536,37.583984 4.7024536,37.583984 C4.7024536,37.583984 12.2317505,37.583984 12.2317505,37.583984 C12.2317505,37.583984 12.2317505,27.58789 12.2317505,19.46875 C12.2317505,19.46875 17.313843,19.46875 17.313843,19.46875 C17.313843,19.46875 17.970093,13.063965 17.970093,13.063965 Z"/>
</svg>