<svg xmlns="http://www.w3.org/2000/svg"
 xmlns:xlink="http://www.w3.org/1999/xlink"
 width="40px" height="33px"  viewBox="0 0 40 33">
<path fill-rule="evenodd"  fill="#ffffff"
 d="M38.845154,4.5722656 C37.487732,5.17334 36.026794,5.583496 34.489746,5.765625 C36.05414,4.828125 37.259216,3.3417969 37.82556,1.5664062 C36.360718,2.4375 34.733826,3.0703125 33.009216,3.4121094 C31.626465,1.9355469 29.653687,1.0136719 27.470154,1.0136719 C23.2807,1.0136719 19.884216,4.4101562 19.884216,8.599609 C19.884216,9.1953125 19.954468,9.771484 20.082458,10.330078 C13.775818,10.015137 8.187927,6.9941406 4.444763,2.3999023 C3.7924805,3.5195312 3.4163818,4.828125 3.4163818,6.21875 C3.4163818,8.847656 4.757324,11.16748 6.7924194,12.532715 C5.550293,12.4921875 4.378418,12.149902 3.3549805,11.580078 C3.3549805,11.613281 3.3549805,11.646484 3.3549805,11.6796875 C3.3549805,15.3515625 5.9711914,18.419922 9.442871,19.117188 C8.802246,19.289062 8.134216,19.38086 7.440857,19.38086 C6.9535522,19.38086 6.478943,19.335938 6.01709,19.24414 C6.9779053,22.261719 9.780701,24.453125 13.098999,24.515625 C10.503418,26.550781 7.2338257,27.763672 3.6810913,27.763672 C3.065857,27.763672 2.4633179,27.726562 1.8685913,27.65625 C5.2280273,29.80664 9.21521,31.063965 13.499451,31.063965 C27.453552,31.063965 35.08539,19.503906 35.08539,9.478516 C35.08539,9.152344 35.077637,8.822266 35.059998,8.496094 C36.54248,7.4277344 37.82959,6.091797 38.845154,4.5722656 Z"/>
</svg>