<svg xmlns="http://www.w3.org/2000/svg" width="68.75" height="30.29" viewBox="0 0 68.75 30.29">
	<style type="text/css">
		.st1{fill:#314584;}
		.st0{fill:#ff3946;}
	</style>
	<path class="st0" d="M49.87 24.29L20.21 24.29L20.21 30.29L49.87 30.29Z"/>
	<path class="st1" d="M10.92,15.49C11.81,14.44 12.25,12.91 12.25,10.91C12.25,8.91 11.81,7.38 10.92,6.32C10.03,5.26 8.71,4.74 6.95,4.74L3.87,4.74L3.87,17.08L6.95,17.08C8.71,17.08 10.03,16.55 10.92,15.49M13.88,4.06C15.47,5.67 16.26,7.95 16.26,10.91C16.26,13.86 15.47,16.14 13.88,17.75C12.29,19.36 10.05,20.16 7.15,20.16L0,20.16L0,1.65L7.15,1.65C10.05,1.65 12.29,2.45 13.88,4.06"/>
	<path class="st1" d="M24.02,9.83C23.45,10.57 23.17,11.67 23.17,13.15C23.17,14.63 23.45,15.74 24.02,16.47C24.59,17.21 25.42,17.58 26.5,17.58C27.59,17.58 28.41,17.21 28.99,16.47C29.56,15.74 29.84,14.63 29.84,13.15C29.84,11.67 29.56,10.57 28.99,9.83C28.41,9.09 27.59,8.72 26.5,8.72C25.42,8.72 24.59,9.09 24.02,9.83M31.79,7.79C33.05,9.08 33.68,10.87 33.68,13.15C33.68,15.43 33.05,17.22 31.79,18.51C30.53,19.8 28.76,20.44 26.5,20.44C24.24,20.44 22.48,19.8 21.21,18.51C19.95,17.22 19.32,15.43 19.32,13.15C19.32,10.87 19.95,9.08 21.21,7.79C22.48,6.5 24.24,5.86 26.5,5.86C28.76,5.86 30.53,6.5 31.79,7.79"/>
	<path class="st1" d="M41.24,9.83C40.67,10.57 40.39,11.67 40.39,13.15C40.39,14.63 40.67,15.74 41.24,16.47C41.81,17.21 42.64,17.58 43.72,17.58C44.81,17.58 45.64,17.21 46.21,16.47C46.78,15.74 47.06,14.63 47.06,13.15C47.06,11.67 46.78,10.57 46.21,9.83C45.64,9.09 44.81,8.72 43.72,8.72C42.64,8.72 41.81,9.09 41.24,9.83M49.01,7.79C50.27,9.08 50.91,10.87 50.91,13.15C50.91,15.43 50.27,17.22 49.01,18.51C47.75,19.8 45.99,20.44 43.72,20.44C41.46,20.44 39.7,19.8 38.44,18.51C37.18,17.22 36.54,15.43 36.54,13.15C36.54,10.87 37.18,9.08 38.44,7.79C39.7,6.5 41.46,5.86 43.72,5.86C45.99,5.86 47.75,6.5 49.01,7.79"/>
	<path class="st1" d="M64.03,16.38C64.61,15.63 64.9,14.55 64.9,13.15C64.9,11.75 64.61,10.67 64.03,9.93C63.45,9.18 62.64,8.8 61.59,8.8C60.66,8.8 59.9,9.13 59.32,9.78C58.74,10.44 58.41,11.36 58.34,12.53L58.34,13.77C58.41,14.96 58.74,15.89 59.32,16.53C59.9,17.18 60.66,17.5 61.59,17.5C62.64,17.5 63.45,17.12 64.03,16.38M67.15,7.79C68.21,9.08 68.75,10.88 68.75,13.18C68.75,15.46 68.21,17.24 67.15,18.52C66.08,19.8 64.61,20.44 62.74,20.44C61.64,20.44 60.68,20.17 59.87,19.62C59.05,19.06 58.44,18.32 58.03,17.39L57.89,20.16L54.5,20.16L54.5,0L58.34,0L58.34,8.44C58.77,7.63 59.36,7 60.11,6.54C60.85,6.09 61.73,5.86 62.74,5.86C64.61,5.86 66.08,6.5 67.15,7.79"/>
</svg>