<svg xmlns="http://www.w3.org/2000/svg" width="56.43" height="56.88" viewBox="0 0 56.43 56.88">
	<style type="text/css">
		.st2{fill:#3d3d49;}
		.st1{fill:#ff3946;}
		.st0{fill:#314584;}
	</style>
	<path class="st0" d="M54.63,52.39C54.63,53.86 53.41,55.08 51.94,55.08L4.49,55.08C3.01,55.08 1.8,53.86 1.79,52.39L1.79,6.3L5.8,18C6.09,18.85 6.61,19.6 7.25,20.22C7.49,20.44 7.74,20.66 8,20.85C9,21.55 10.19,22.01 11.41,22.01L21.43,22.01L21.43,20.22L11.41,20.22C10.65,20.22 9.78,19.91 9.05,19.38C8.32,18.86 7.74,18.14 7.5,17.42L2.91,4C2.81,3.73 2.77,3.47 2.77,3.25C2.78,2.79 2.93,2.47 3.19,2.22C3.33,2.09 3.52,1.99 3.74,1.91C3.83,1.88 3.92,1.86 4.02,1.84C4.05,1.83 4.09,1.83 4.13,1.82C4.18,1.81 4.23,1.81 4.28,1.81C4.34,1.8 4.4,1.8 4.47,1.79C4.48,1.79 4.48,1.79 4.49,1.79L51.94,1.79C51.95,1.79 51.95,1.79 51.96,1.79C52.02,1.8 52.07,1.8 52.12,1.81C52.18,1.81 52.24,1.81 52.3,1.82C52.34,1.83 52.37,1.83 52.41,1.84L52.41,1.84C52.77,1.91 53.04,2.05 53.23,2.22C53.5,2.47 53.65,2.79 53.65,3.25C53.65,3.47 53.61,3.73 53.52,4L48.93,17.42C48.69,18.14 48.11,18.86 47.38,19.38C46.65,19.91 45.77,20.22 45.02,20.22L34.99,20.22L34.99,22.01L45.02,22.01C46.24,22.01 47.43,21.55 48.42,20.85C48.69,20.66 48.94,20.44 49.18,20.22C49.82,19.6 50.34,18.85 50.63,18L54.63,6.3L54.63,6.3ZM56.38,3.85C56.12,2.04 54.79,0.59 53.05,0.14C53.01,0.13 52.98,0.12 52.94,0.11C52.91,0.11 52.87,0.1 52.84,0.09C52.82,0.09 52.79,0.08 52.77,0.08C52.76,0.08 52.76,0.08 52.76,0.08C52.66,0.06 52.56,0.04 52.45,0.03L52.44,0.03C52.42,0.02 52.39,0.02 52.37,0.02C52.23,0 52.09,0 51.94,0L28.21,0L4.49,0C4.48,0 4.47,0 4.46,0C4.33,0 4.19,0.01 4.06,0.02C4.06,0.02 4.06,0.02 4.06,0.02C4.04,0.02 4.02,0.02 4.01,0.03C3.99,0.03 3.98,0.03 3.96,0.03C3.86,0.04 3.76,0.06 3.67,0.08C3.62,0.08 3.57,0.1 3.52,0.11C3.51,0.11 3.5,0.11 3.49,0.11C3.49,0.11 3.48,0.11 3.48,0.12C3.45,0.12 3.41,0.13 3.38,0.14C2.94,0.25 2.53,0.43 2.15,0.66C0.86,1.45 0,2.87 0,4.49L0,17.52L0,17.53L0,52.39C0,54.87 2.01,56.88 4.49,56.88L51.94,56.88C54.42,56.88 56.43,54.87 56.43,52.39L56.43,17.52L56.43,17.52L56.43,4.49C56.43,4.27 56.41,4.06 56.38,3.85"/>
	<path class="st1" d="M31.45 15.75L24.98 15.75L24.98 27.55L31.45 27.55ZM28.21,-24.83C26.61,-24.83 25.29,-26 25.03,-27.53L31.4,-27.53C31.14,-26 29.82,-24.83 28.21,-24.83M28.21,-45.74C29.86,-45.73 31.21,-44.51 31.42,-42.92L25.01,-42.92C25.22,-44.51 26.57,-45.73 28.21,-45.74M28.21,-47.54C25.57,-47.54 23.42,-45.5 23.2,-42.92L23.18,-42.92L23.18,-42.51L23.18,-42.5L23.18,-42.5L23.18,-28.07L23.18,-28.06L23.18,-28.06L23.18,-27.53L23.21,-27.53C23.48,-25 25.62,-23.03 28.21,-23.03C30.81,-23.03 32.95,-25 33.22,-27.53L33.25,-27.53L33.25,-42.92L33.22,-42.92C33.01,-45.5 30.85,-47.54 28.21,-47.54"/>
	<path class="st2" d="M29.79 20.22L26.64 20.22L26.64 22.01L29.79 22.01Z"/>
</svg>