<svg xmlns="http://www.w3.org/2000/svg" width="64.04" height="47.38" viewBox="0 0 64.04 47.38">
	<style type="text/css">
		.st2{fill:#3d3d49;}
		.st1{fill:#ff3946;}
		.st0{fill:#314584;}
	</style>
	<path class="st0" d="M62.18,9.61C61.4,9.02 60.43,8.67 59.38,8.67L4.65,8.67C3.6,8.67 2.64,9.02 1.86,9.61L1.86,4.65C1.86,3.12 3.12,1.86 4.65,1.86L59.38,1.86C60.91,1.86 62.17,3.12 62.18,4.65ZM62.18,42.73C62.17,44.26 60.91,45.52 59.38,45.52L4.65,45.52C3.12,45.52 1.86,44.26 1.86,42.73L1.86,13.32C1.86,11.79 3.12,10.53 4.65,10.53L59.38,10.53C60.91,10.53 62.17,11.79 62.18,13.32L62.18,42.73ZM59.38,0L4.65,0C2.08,0 0,2.08 0,4.65L0,42.73C0,45.3 2.08,47.38 4.65,47.38L59.38,47.38C61.95,47.38 64.03,45.3 64.04,42.73L64.04,4.65C64.03,2.08 61.95,0 59.38,0"/>
	<path class="st1" d="M22.28,25.88L27.51,20.65C27.66,20.5 27.66,20.27 27.51,20.12L26.72,19.33C26.58,19.19 26.34,19.19 26.2,19.33L19.92,25.61C19.77,25.76 19.77,25.99 19.92,26.14L20.51,26.74C20.52,26.75 20.53,26.77 20.54,26.78L26.82,33.06C26.97,33.21 27.21,33.21 27.35,33.06L28.14,32.27C28.29,32.13 28.29,31.89 28.14,31.74Z"/>
	<path class="st1" d="M38.5,19.8C38.36,19.65 38.12,19.65 37.98,19.8L37.19,20.59C37.04,20.73 37.04,20.97 37.19,21.11L42.42,26.35L37.02,31.74C36.88,31.89 36.88,32.13 37.02,32.27L37.81,33.06C37.95,33.21 38.19,33.21 38.34,33.06L44.62,26.78C44.63,26.77 44.63,26.76 44.64,26.75L44.78,26.6C44.93,26.46 44.93,26.22 44.78,26.08Z"/>
	<path class="st1" d="M34.81,20.16L33.73,19.85C33.54,19.8 33.33,19.91 33.27,20.11L30.2,30.93C30.15,31.12 30.26,31.33 30.46,31.39L31.53,31.69C31.73,31.75 31.94,31.63 31.99,31.43L35.06,20.62C35.12,20.42 35,20.21 34.81,20.16"/>
	<path class="st2" d="M47.59,4.16L44.17,4.16C43.96,4.16 43.8,4.32 43.8,4.53L43.8,5.65C43.8,5.85 43.96,6.02 44.17,6.02L47.59,6.02C47.79,6.02 47.96,5.85 47.96,5.65L47.96,4.53C47.96,4.32 47.79,4.16 47.59,4.16"/>
	<path class="st2" d="M53.05,4.16L49.63,4.16C49.43,4.16 49.26,4.32 49.26,4.53L49.26,5.64C49.26,5.85 49.43,6.02 49.63,6.02L53.05,6.02C53.26,6.02 53.42,5.85 53.42,5.64L53.42,4.53C53.42,4.32 53.26,4.16 53.05,4.16"/>
	<path class="st2" d="M58.51,4.16L55.1,4.16C54.89,4.16 54.72,4.32 54.72,4.53L54.72,5.65C54.72,5.85 54.89,6.02 55.1,6.02L58.51,6.02C58.72,6.02 58.89,5.85 58.89,5.65L58.89,4.53C58.89,4.32 58.72,4.16 58.51,4.16"/>
</svg>